<svg width="462" height="350" fill="none" xmlns="http://www.w3.org/2000/svg"><path d="m166.299 70-.2.2c-1.402 1.5-3.005 2.2-4.507 2.2l2.804-4.9c1.803-3.1.1-6.1-2.704-6.1-2.304 0-4.107.9-5.809 3.9l-1.503 2.6-1.201 2.1-.201.2c-2.203 2.5-4.306 4.5-5.608 4.5-.702 0-1.002-.5-.301-1.6l6.41-11.2h2.404l.901-1.4h-2.504l2.805-4.9h-3.005l-2.804 4.9h-2.705l-.901 1.4h2.704l-6.009 10.4c-1.302 2.2-.401 4.3 2.003 4.3 1.703 0 3.706-1.3 5.509-3.1 0 3.8 5.308 4.6 8.513.5h.701c1.803 0 4.607-1.1 6.109-2.9 0-.5-.5-.9-.901-1.1Zm-6.41.2h-.1c-1.002 0-1.803.8-1.803 1.8 0 .4.1.7.301 1v.1c-1.403 2.4-4.808 2-3.105-1.2l2.303-3.9 1.402-2.4c2.104-3.6 5.008-2.2 3.205.9l-2.203 3.7ZM207.864 70l-.2.2c-2.204 2.5-4.908 4.5-7.011 4.5-1.803 0-2.905-1.2-1.603-3.6l.301-.5c1.903.8 5.608.4 7.812-3.5l.4-.7c1.603-2.8.101-4.8-2.403-4.8-2.404 0-4.307 1.3-5.609 3.5l-2.905 5-.2.2c-2.203 2.5-4.307 4.5-5.609 4.5-.701 0-1.001-.5-.3-1.6l4.307-7.6c1.302-2.3.1-3.9-1.603-3.9-1.302 0-2.704.7-4.206 2.3l4.807-8.3h-3.005L182.524 70l-.2.2c-2.203 2.5-4.307 4.5-5.609 4.5-.701 0-1.001-.5-.3-1.6l6.41-11.2h2.404l.901-1.4h-2.504l2.805-4.9h-3.005l-2.805 4.9h-2.704l-.901 1.4h2.704l-6.009 10.4c-1.302 2.2-.401 4.3 2.003 4.3 1.202 0 2.504-.6 3.806-1.6l-.802 1.3h3.005l4.507-7.9c4.607-5.8 6.611-5 5.409-2.8l-3.906 6.8c-1.302 2.2-.401 4.3 2.003 4.3 1.802 0 3.806-1.4 5.608-3.2.101 1.9 1.703 3.2 4.107 3.2 3.405 0 6.81-2.6 9.214-5.5.1-.6-.4-1-.801-1.2Zm-5.709-4.2c1.703-3 4.808-2.5 3.005.6l-.401.7c-1.402 2.4-3.405 2.4-4.507 2l1.903-3.3ZM317.134 70l-.2.2c-1.102 1.3-2.404 2.4-3.606 3.3 1.002-2.9.702-7.2 2.605-11.1l-2.204-1.2c-1.202 1.7-3.906 5.6-6.71 8.8l-.201.2c-2.203 2.5-4.306 4.5-5.608 4.5-.702 0-1.002-.5-.301-1.6l6.41-11.2h-3.005l-5.308 9.3c-2.303 2.1-4.006 3.2-4.607 3-.701-.3 0-1.4.401-2.1l5.809-10.2h-3.005l-4.707 8.1-.201.2c-1.402 1.5-3.004 2.2-4.507 2.2l2.805-4.9c1.802-3.1.1-6.1-2.705-6.1-2.303 0-4.106.9-5.809 3.9l-1.502 2.6-1.202 2.1-.2.2c-2.204 2.5-4.908 4.5-7.011 4.5-1.803 0-2.905-1.2-1.603-3.6l.301-.5c1.903.8 5.609.4 7.812-3.5l.401-.7c1.602-2.8.1-4.8-2.404-4.8-2.404 0-4.307 1.3-5.609 3.5l-2.904 5-.201.2c-2.504 2.9-4.607 4.7-7.011 5.7l6.711-11.5h-1.803c0-1.2-1.302-2.9-3.105-2.9-1.602 0-3.906 1.3-5.108 3.5l-2.904 5-.201.2c-2.203 2.5-4.306 4.5-5.608 4.5-.701 0-1.002-.5-.301-1.6l3.005-5.2c1.001-1.8.501-2.9-.401-4.1l-1.702-2c-.401-.5-.401-1.2.2-1.7l-1.603-1.7c-1.702 1.5-1.802 3.2-.801 4.6l.301.3c-1.302 1.9-3.105 4.4-5.108 6.7l-.201.2c-1.402 1.5-3.004 2.2-4.507 2.2l2.805-4.9c1.802-3.1.1-6.1-2.705-6.1-2.303 0-4.106.9-5.809 3.9L231 68l-1.202 2.1-.2.2c-2.504 2.9-4.607 4.7-7.011 5.7l6.71-11.5h-1.802c0-1.2-1.302-2.9-3.105-2.9-1.603 0-3.906 1.3-5.108 3.5l-4.207 7.3c-1.302 2.2-.4 4.3 2.003 4.3.802 0 1.803-.4 2.905-1l-.801 1.4c-4.007 1.2-6.611 2.9-6.611 5.1 0 2.9 4.407 3.5 6.611-.2l2.303-3.9c2.404-.7 4.708-2.2 7.211-4.5 0 3.8 5.309 4.6 8.514.5h.701c1.803 0 4.607-1.1 6.109-2.9 1.403-1.7 2.604-3.2 5.008-6.4l.401.5c.4.5.501 1.1.2 1.7l-3.205 5.5c-1.302 2.2-.401 4.3 2.003 4.3 1.503 0 3.205-1 4.808-2.4 0 1.4.901 2.4 2.604 2.4.801 0 1.803-.4 2.904-1l-.701 1.2c-4.006 1.2-6.61 2.9-6.61 5.1 0 2.9 4.407 3.5 6.61-.2l2.304-3.9c2.404-.8 4.807-2.2 7.311-4.6.1 1.9 1.603 3.2 4.107 3.2 2.403 0 4.907-1.4 6.91-3.2-.1 3.9 5.309 4.7 8.514.6h.701c.901 0 2.203-.3 3.305-.9-.801 2.1-.1 3.5 1.602 3.5 1.603 0 3.506-1.5 4.908-2.9-.3 1.6.701 2.9 2.604 2.9 2.504 0 5.308-2.6 7.812-5.5 1.703-2 3.205-4.1 4.307-5.5-1.202 3.1-.501 8.7-3.405 8.7-1.002 0-1.402-1.1-1.402-1.1l-1.903 1s.5 2.4 3.305 2.4c.3 0 .501 0 .801-.1h.1c3.105-.4 6.11-2.8 8.313-5.4-.1-.5-.601-1-1.102-1.1Zm-42.967-4.2c1.703-3 4.808-2.5 3.005.6l-.401.7c-1.402 2.4-3.405 2.4-4.507 2l1.903-3.3Zm-57.289 15.6c-.601 1.1-1.602 1-1.602.1 0-.8.701-1.7 3.004-2.6l-1.402 2.5Zm1.402-6.7c-.701 0-1.001-.5-.3-1.6l4.206-7.3c1.603-2.8 4.808-2.1 3.305.6l-2.303 4c-1.803 2.9-3.706 4.3-4.908 4.3Zm18.429-4.5h-.1c-1.002 0-1.803.8-1.803 1.8 0 .4.1.7.3 1v.1c-1.402 2.4-4.807 2-3.104-1.2l2.303-3.9 1.402-2.4c2.104-3.6 5.008-2.2 3.205.9l-2.203 3.7Zm18.829 11.2c-.601 1.1-1.602 1-1.602.1 0-.8.701-1.7 3.004-2.6l-1.402 2.5Zm1.402-6.7c-.701 0-1.001-.5-.3-1.6l4.207-7.3c1.602-2.8 4.807-2.1 3.305.6l-2.304 4c-1.803 2.9-3.706 4.3-4.908 4.3Zm29.547-4.5h-.101c-1.001 0-1.802.8-1.802 1.8 0 .4.1.7.3 1v.1c-1.402 2.4-4.807 2-3.105-1.2l2.304-3.9 1.402-2.4c2.103-3.6 5.008-2.2 3.205.9l-2.203 3.7ZM131.144 66.8h-28.945v2h28.945v-2ZM358.499 66.8h-28.945v2h28.945v-2Z" fill="#766458"/><path d="M164.096 0h7.712l-1.202 44.9h-14.523l-2.003-18.5-2.003 18.5h-14.623L136.352 0h7.612l.601 37.2h.801L150.274 0h7.612l4.908 37.2h.801l.501-37.2ZM195.945 37.2V45h-20.932V0h20.932v7.7h-13.321v10.8h10.617v7.7h-10.617v10.9h13.321v.1ZM217.379 37.2V45H199.05V0h7.612v37.2h10.717ZM233.604 28.4l7.712-1.8v13.6c0 2.6-2.203 4.7-4.707 4.7h-11.518c-2.604 0-4.708-2.2-4.708-4.7V4.7c0-2.6 2.104-4.7 4.708-4.7h11.518c2.504 0 4.707 2.1 4.707 4.7v9.1l-7.712 1.8v-8h-5.509v29.5h5.509v-8.7ZM262.149 0c2.503 0 4.707 2.1 4.707 4.7v35.4c0 2.6-2.204 4.7-4.707 4.7h-11.518c-2.604 0-4.708-2.2-4.708-4.7V4.7c0-2.6 2.104-4.7 4.708-4.7h11.518Zm-3.005 7.7h-5.509v29.5h5.509V7.7ZM291.895 0h7.612v44.9h-7.612V22.8l-3.105 11.4h-7.512l-3.004-11.4v22.1h-7.612V0h7.612l6.81 21.7L291.895 0ZM324.245 37.2V45h-20.932V0h20.932v7.7h-13.32v10.8h10.616v7.7h-10.616v10.9h13.32v.1Z" fill="#81B3D3"/><path d="M45.21 157.6c-3.606-3-8.113-5-12.92-5-3.606 0-8.313 2.1-8.313 6.3 0 4.4 5.308 6.1 8.613 7.1l5.008 1.5c10.416 3.1 18.53 8.3 18.53 20.4 0 7.4-1.804 15.1-7.713 20.1-5.91 5-13.721 7-21.233 7-9.415 0-18.73-3.2-26.341-8.5L8.953 191c4.908 4.3 10.617 7.7 17.328 7.7 4.607 0 9.414-2.3 9.414-7.5 0-5.5-7.612-7.3-11.818-8.5-12.22-3.6-20.232-6.7-20.232-21.2 0-15.2 10.817-25.1 25.84-25.1 7.512 0 16.827 2.4 23.437 6.2l-7.712 15ZM92.584 154.8v12.5h21.934v16.5H92.584v12.9h23.236v16.5H73.154v-74.8h42.666v16.5l-23.236-.1ZM130.243 138.4h27.643c20.832 0 38.059 16.4 38.059 37.4s-17.327 37.4-38.059 37.4h-27.643v-74.8Zm19.53 58.3h4.407c11.618 0 21.534-6.4 21.534-20.9 0-13.4-8.814-20.9-21.334-20.9h-4.607v41.8ZM287.989 174.4c0 24.2-17.427 41.3-41.465 41.3-24.037 0-41.465-17.1-41.465-41.3 0-22.6 19.932-38.5 41.465-38.5 21.534 0 41.465 15.9 41.465 38.5Zm-62.698.1c0 12.9 9.515 22.3 21.133 22.3 11.618 0 21.133-9.4 21.133-22.3 0-10.3-9.515-19.8-21.133-19.8-11.518 0-21.133 9.5-21.133 19.8ZM298.305 138.4h19.53l35.656 45.8h.2v-45.8h19.531v74.8h-19.531l-35.655-45.9h-.201v45.9h-19.53v-74.8ZM408.577 200.2l-5.208 13h-20.632l28.845-74.8h21.233l28.244 74.8h-20.733l-4.907-13h-26.842Zm13.621-38.7h-.2l-8.013 23.8h16.226l-8.013-23.8ZM108.91 287.7c7.712-2.6 8.212-12.2.701-12.2-2.104 0-4.608 1.5-6.31 4.4l-10.216 17.7c-.501.8-.902 1.5-1.502 2.2-2.605-3.6-1.903-9 1.802-11.4l-1.502-1.9c-8.013 5.1-5.609 19.7 7.712 19.7 11.318 0 16.626-13.6 9.315-18.5Zm-9.415 15.6c-2.304 0-4.006-.5-5.509-1.3.701-.8 1.302-1.7 1.903-2.7l6.41-11.1 1.002.1c8.914 1.9 5.408 15-3.806 15ZM103.6 286l3.105-5.3c2.804-4.8 6.31-2 4.407 1.6-1.502 2.8-3.606 3.6-7.512 3.7Z" fill="#fff"/><path d="M141.06 300c-.601 2.2.601 4.1 3.105 4.1 1.502 0 3.405-1 5.308-2.5.2 1.5 1.402 2.5 3.305 2.5 2.003 0 4.207-1.4 6.41-3.4-.401 2 .501 3.4 2.404 3.4 2.103 0 4.407-1.9 6.209-3.6-.4 2 .802 3.6 3.205 3.6 3.105 0 6.711-3.4 9.916-7 0-.1-.1-.1-.1-.2 2.103-2.4 3.906-5 5.308-6.8-1.502 3.9-.701 11-4.307 11-1.302 0-1.802-1.4-1.802-1.4l-2.404 1.2s.701 3.1 4.206 3.1c.401 0 .701 0 1.102-.1h.1c2.805-.4 5.509-2.1 7.913-4.2.1 2.5 2.003 4.3 5.108 4.3 4.306 0 8.613-3.4 11.718-7-.301-.5-.902-1.1-1.402-1.3l-.301.3c-2.704 3.2-6.21 5.7-8.914 5.7-2.303 0-3.706-1.5-2.003-4.5l.401-.7c2.403 1 7.011.5 9.915-4.4l.501-.9c2.003-3.5.1-6.1-3.005-6.1s-5.508 1.6-7.111 4.4l-3.706 6.3h-.1l-.3.3c-1.402 1.6-3.105 3.1-4.607 4.1 1.201-3.6.901-9.2 3.305-14l-2.805-1.5c-1.602 2.2-5.007 7.1-8.413 11.1l.1.1-.1.2c-2.704 3.2-5.408 5.7-7.111 5.7-.801 0-1.302-.6-.4-2.1l8.112-14.2h-3.806l-6.71 11.8c-2.905 2.6-5.108 4.1-5.809 3.8-.902-.4 0-1.8.501-2.6l7.411-12.9h-3.806l-6.009 10.4c-.1-.1-.201-.1-.301-.2l-.3.3c-2.704 3.2-5.409 5.7-7.111 5.7-.802 0-1.302-.6-.401-2.1l6.11-10.7h-2.204c.1-1.6-1.502-3.8-4.006-3.8-2.003 0-4.908 1.6-6.51 4.4l-3.806 6.6c-.2-.2-.401-.3-.601-.4l-.301.3c-2.704 3.2-6.209 5.7-8.913 5.7-2.304 0-3.706-1.5-2.004-4.5l3.907-6.8c2.203-3.8 6.109-3.1 3.805.8l-.5.9h3.105l.5-.9c2.003-3.5.1-6.1-3.004-6.1-3.105 0-5.509 1.6-7.111 4.4l-3.806 6.5c-.101-.1-.201-.1-.301-.2l-.3.3c-2.705 3.2-6.21 5.7-8.914 5.7-2.304 0-3.706-1.5-2.003-4.5l.4-.7c2.404 1 7.011.5 9.916-4.4l.5-.9c2.004-3.5.101-6.1-3.004-6.1s-5.509 1.6-7.111 4.4l-4.007 6.8c-2.403 4-.3 7.8 4.207 7.8 3.305 0 6.71-2 9.415-4.6-.1 2.6 1.903 4.6 5.108 4.6 3.205-.2 6.31-2 9.014-4.3Zm58.09-9.6c2.204-3.8 6.11-3.1 3.806.8l-.5.9c-1.803 3.1-4.307 3-5.709 2.5l2.403-4.2Zm-54.284 9.3 5.308-9.2c2.003-3.5 6.109-2.6 4.207.8l-3.005 5.2c-2.304 3.6-4.607 5.3-6.11 5.3-.801-.1-1.302-.6-.4-2.1Zm-24.238-9.3c2.203-3.8 6.109-3.1 3.806.8l-.501.9c-1.803 3.1-4.307 3-5.709 2.5l2.404-4.2ZM249.429 304.1c4.306 0 8.613-3.4 11.718-7-.3-.5-.901-1.1-1.402-1.3l-.301.3c-2.704 3.2-6.209 5.7-8.914 5.7-2.303 0-3.705-1.5-2.003-4.5l.401-.7c2.404 1 7.011.5 9.915-4.4l.501-.9c2.003-3.5.1-6.1-3.004-6.1-3.105 0-5.509 1.6-7.112 4.4l-3.705 6.3s-.101 0-.101-.1l-.3.3c-2.704 3.2-5.408 5.7-7.111 5.7-.801 0-1.302-.6-.401-2.1l5.509-9.6c1.602-2.9.1-5-2.003-5-1.603 0-3.406.9-5.309 2.9l6.11-10.5h-3.906L227.294 296c-.1-.1-.3-.2-.4-.3l-.301.3c-2.704 3.2-5.408 5.7-7.111 5.7-.801 0-1.302-.6-.401-2.1l8.113-14.2h3.105l1.102-1.8h-3.105l3.605-6.2h-3.806l-3.605 6.2h-3.405l-1.102 1.8h3.505l-7.612 13.2c-1.602 2.8-.5 5.4 2.604 5.4 1.903 0 3.907-1.2 6.01-3l-1.503 2.6h3.806l5.809-10c5.81-7.3 8.414-6.4 6.811-3.6l-4.908 8.6c-1.602 2.8-.5 5.4 2.605 5.4 2.303 0 4.907-1.8 7.311-4.2 0 2.5 1.903 4.3 5.008 4.3Zm3.105-13.7c2.203-3.8 6.109-3.1 3.806.8l-.501.9c-1.803 3.1-4.307 3-5.709 2.5l2.404-4.2ZM364.608 295.8l-.3.3c-2.704 3.2-5.409 5.7-7.111 5.7-.801 0-1.302-.6-.401-2.1l12.82-22.2h-3.806l-5.609 9.6c-.701-1.1-1.903-2-3.505-2-2.003 0-4.908 1.6-6.51 4.4l-3.706 6.4c-.1 0-.2-.1-.2-.1l-.301.3c-2.704 3.2-5.408 5.7-7.111 5.7-.801 0-1.302-.6-.4-2.1l5.508-9.6c1.603-2.9.1-5-2.003-5-1.602 0-3.405.9-5.308 2.8l1.402-2.5h-3.806l-6.11 10.5c-.1-.1-.2-.2-.4-.2l-.301.3c-2.704 3.2-5.408 5.7-7.111 5.7-.801 0-1.302-.6-.4-2.1l6.109-10.7h-1.903c.1-1.6-1.502-3.8-4.006-3.8-2.003 0-4.908 1.6-6.51 4.4l-3.706 6.3-.2.2c-2.705 3.2-5.409 5.7-7.111 5.7-.802 0-1.302-.6-.401-2.1l3.806-6.6c1.302-2.3.701-3.6-.501-5.1l-2.103-2.6c-.501-.7-.501-1.5.2-2.2l-2.003-2.2c-2.203 1.9-2.304 4.1-1.002 5.8l.301.4c-1.703 2.4-3.906 5.6-6.41 8.5l.3.3c-3.104 3.6-5.809 5.9-8.813 7.2l4.807-8.2h-3.706l-.4.7c-2.003 3.5-4.307 6.1-7.312 6.1-2.604 0-3.104-2.6-.801-6.5l1.102-1.9c.701.1 1.402.2 2.203.2 13.521 0 20.032-18.1 8.113-18.1-2.103 0-4.607 1.5-6.31 4.4l-5.909 10.2c-2.204-1.2-3.405-3.3-3.405-5.4 0-1.8.801-3.5 2.403-4.8l-1.202-2.2c-2.704 1.9-3.906 4.5-3.906 7.1 0 3 1.703 5.9 4.808 7.5l-1.102 2c-2.704 4.6-2.203 9.7 3.205 9.7 1.603 0 3.005-.5 4.107-1.2l-1.002 1.7c-5.108 1.6-8.313 3.6-8.313 6.5 0 3.6 5.609 4.4 8.313-.3l2.904-5c3.907-1.2 7.813-3.9 12.019-8.8-.1-.1-.1-.2-.2-.4 1.703-2 3.105-3.9 6.009-7.8l.501.6c.501.6.701 1.4.2 2.2l-4.006 7c-1.602 2.8-.501 5.4 2.604 5.4 1.903 0 4.006-1.2 6.01-3 0 1.7 1.101 3 3.305 3 1.502 0 3.405-1 5.308-2.5.2 1.5 1.402 2.5 3.305 2.5 1.803 0 3.806-1.1 5.709-2.8l-1.402 2.4h3.806l5.809-10.1c5.809-7.3 8.413-6.3 6.71-3.5l-4.907 8.6c-1.603 2.8-.501 5.4 2.604 5.4 2.003 0 4.206-1.4 6.41-3.3-.201 1.9 1.001 3.3 3.305 3.3 1.502 0 3.405-1 5.308-2.5.201 1.5 1.402 2.5 3.305 2.5 3.105 0 6.711-3.4 9.916-7-.401-.2-1.102-.8-1.603-1Zm-78.021-14.2c1.101-1.9 2.403-2.8 3.405-2.8 6.009 0 1.803 12.3-8.113 12.3h-.801l5.509-9.5Zm-8.113 28.6c-.801 1.4-2.103 1.2-2.103.2s.901-2.1 3.806-3.2l-1.703 3Zm39.762-13.8c-2.304 3.6-4.607 5.3-6.11 5.3-.801 0-1.302-.6-.4-2.1l5.308-9.2c2.003-3.5 6.11-2.6 4.207.8l-3.005 5.2Zm36.757-.2c-2.303 3.8-4.607 5.5-6.209 5.5-.802 0-1.302-.6-.401-2.1l5.308-9.2c2.003-3.5 6.11-2.6 4.207.8l-2.905 5ZM237.71 331.8l-.3.3c-2.704 3.2-5.409 5.7-7.111 5.7-.801 0-1.302-.6-.401-2.1l5.509-9.6c1.602-2.9.1-5-2.003-5-1.603 0-3.406.9-5.309 2.8l1.403-2.5h-3.806l-6.11 10.6c-.2-.1-.3-.2-.501-.3l-.3.3c-1.703 1.9-3.806 2.8-5.709 2.8l3.606-6.2c2.303-4 .2-7.7-3.406-7.7-2.904 0-5.208 1.2-7.411 5l-1.903 3.2-1.603 2.8c-.1-.1-.2-.1-.3-.2l-.301.3c-3.105 3.6-5.809 5.9-8.813 7.2l10.416-17.8h-3.806l-6.711 11.7c-2.904 2.7-5.208 4.2-5.909 3.9-.901-.4 0-1.8.501-2.6l7.412-12.9h-3.806l-6.11 10.5c-.1-.1-.2-.1-.3-.2l-.301.3c-2.704 3.2-5.408 5.7-7.111 5.7-.801 0-1.302-.6-.401-2.1l5.509-9.6c1.602-2.9.1-5-2.003-5-1.603 0-3.405.9-5.308 2.8l1.402-2.5h-3.806l-6.11 10.5c-.1-.1-.2-.2-.4-.2l-.301.3c-2.704 3.2-5.408 5.7-7.111 5.7-.801 0-1.302-.6-.401-2.1l6.11-10.7h-2.203c.1-1.6-1.503-3.8-4.007-3.8-2.003 0-4.907 1.6-6.51 4.4l-3.906 6.8c-.3-.2-.601-.4-.801-.5l-.301.3c-2.704 3.2-6.109 5.7-9.815 5.7-2.604 0-4.206-2.6-1.903-6.5l1.102-1.9c.701.1 1.402.2 2.203.2 4.006 0 8.614-2.1 11.618-7.3 1.102-1.9 1.503-3.6 1.503-5.1 0-3.4-2.204-5.7-5.008-5.7-2.103 0-4.607 1.5-6.31 4.4l-5.909 10.2c-2.204-1.2-3.405-3.3-3.405-5.4 0-1.8.801-3.5 2.403-4.8l-1.202-2.2c-2.704 1.9-3.906 4.5-3.906 7.1 0 3 1.703 5.9 4.808 7.5l-1.102 2c-2.704 4.6-1.102 9.7 4.307 9.7 4.206 0 7.411-1.9 10.015-4.4-.801 2.4.401 4.4 3.105 4.4 1.503 0 3.406-1 5.309-2.5.2 1.5 1.402 2.5 3.305 2.5 1.803 0 3.806-1.1 5.709-2.8l-1.403 2.4h3.806l5.809-10.1c5.809-7.3 8.414-6.3 6.711-3.5l-4.908 8.6c-1.602 2.8-.501 5.4 2.604 5.4 2.003 0 4.307-1.4 6.51-3.4-.5 2.1.501 3.4 2.404 3.4 1.803 0 3.906-1.5 5.609-3.1l-2.103 3.6c-5.108 1.5-8.413 3.6-8.413 6.5 0 3.6 5.608 4.4 8.313-.3l2.904-5c3.205-1 6.31-3 9.615-6.2-.501 5.3 6.51 6.5 10.817 1.1h.801c1.402 0 3.305-.5 5.008-1.5l-2.504 4.4h3.806l5.809-10.1c5.809-7.3 8.413-6.3 6.711-3.5l-4.908 8.6c-1.603 2.8-.501 5.4 2.604 5.4s6.71-3.4 9.915-7c-.1-.3-.801-.9-1.302-1.1Zm-94.547-14.2c1.102-1.9 2.404-2.8 3.405-2.8 1.402 0 2.103.9 2.103 2.3 0 3.5-4.306 9.9-10.215 9.9h-.802l5.509-9.4Zm13.421 14.8c-2.304 3.6-4.607 5.3-6.11 5.3-.801 0-1.302-.6-.4-2.1l5.308-9.2c2.003-3.5 6.109-2.6 4.207.8l-3.005 5.2Zm28.845 13.8c-.801 1.4-2.103 1.2-2.103.2s.901-2.1 3.805-3.2l-1.702 3Zm25.64-14.2h-.2c-1.202 0-2.204 1-2.204 2.3 0 .5.1.9.401 1.3v.1c-1.803 3.1-6.11 2.5-3.906-1.5l2.904-5 1.803-3.1c2.704-4.5 6.31-2.7 4.006 1.2l-2.804 4.7ZM325.748 333.1c-.201-.6-.902-1.2-1.402-1.3l-.301.3c-1.402 1.6-3.105 3.1-4.607 4.1 1.202-3.6.901-9.2 3.305-14l-2.804-1.5c-1.603 2.2-5.008 7.1-8.413 11.1l-.301.3c-2.704 3.2-5.408 5.7-7.111 5.7-.801 0-1.603-.8-1.603-2.6v-1.6c2.705.3 5.509-1.4 7.312-4.5l1.001-1.8c3.506-6.1-2.203-8.1-6.109-4.5l5.408-9.4h-3.806l-10.816 18.8c-.201-.2-.501-.4-.702-.5l-.3.3c-2.704 3.2-6.21 5.7-8.914 5.7-2.304 0-3.706-1.5-2.003-4.5l3.906-6.8c2.203-3.8 6.11-3.1 3.806.8l-.501.9h3.105l.501-.9c2.003-3.5.1-6.1-3.005-6.1s-5.508 1.6-7.111 4.4l-3.706 6.4c-.1 0-.2-.1-.2-.1l-.301.3c-2.704 3.2-5.408 5.7-7.111 5.7-.801 0-1.302-.6-.4-2.1l8.112-14.2h-3.806l-6.71 11.8c-2.905 2.6-5.108 4.1-5.809 3.8-.901-.4 0-1.8.501-2.6l7.411-12.9h-3.806l-7.411 12.7c-.801.7-1.703 1.4-2.404 2 1.202-3.6.901-9.2 3.305-14l-2.804-1.5c-1.603 2.2-10.316 13.8-13.822 17.8.301.5.902.9 1.402 1.3 2.204-2.5 9.415-11.8 10.717-13.6-1.502 3.9-.701 11-4.307 11-1.302 0-1.802-1.4-1.802-1.4l-2.404 1.2s.701 3.1 4.206 3.1c.401 0 .702 0 1.102-.1h.1c1.903-.3 3.806-1.1 5.609-2.4 0 1.5.901 2.5 2.504 2.5 2.103 0 4.407-1.9 6.21-3.6-.401 2 .801 3.6 3.205 3.6 2.403 0 5.007-1.9 7.511-4.4 0 2.5 2.004 4.4 5.108 4.4 3.105 0 6.11-1.7 8.814-4l-2.103 3.7H295l4.306-7.5v3c0 3.2.601 4.9 3.706 4.9s6.711-3.4 9.916-7c2.203-2.5 4.006-5.1 5.408-6.9-1.502 3.9-.701 11-4.307 11-1.302 0-1.802-1.4-1.802-1.4l-2.404 1.2s.701 3.1 4.206 3.1c.401 0 .702 0 1.102-.1h.1c3.806-.7 7.712-3.8 10.517-7.1Zm-25.24-3 1.102-1.9c4.407-6.1 7.412-4.4 6.009-2.1l-1.802 3.1c-1.102 2-4.407 3.4-5.309.9ZM325.648 335.7c-1.202 0-2.204 1-2.204 2.2 0 1.2.902 2.2 2.204 2.2 1.201 0 2.203-.9 2.203-2.2 0-1.2-1.002-2.2-2.203-2.2ZM325.848 334.2h3.806l11.918-20.7h-3.806l-11.918 20.7ZM81.166 277.6c0 .3-.1.6-.2.9-.1.3-.3.6-.501.8-.2.2-.5.4-.801.6-.3.1-.701.2-1.102.2-.5 0-.901-.1-1.302-.3-.4-.2-.801-.4-1.102-.7-.3-.3-.4-.6-.6-1-.1-.4-.2-.8-.2-1.3 0-.9.2-1.6.5-2.4.3-.7.7-1.4 1.302-1.9.2-.2.5-.5.801-.7.3-.2.601-.4.901-.5.301-.1.501-.3.702-.4.2-.1.3-.1.4-.2l1.402 2c-.2.1-.5.2-.8.4-.301.1-.602.3-.902.5-.3.2-.501.5-.701.8-.2.3-.3.6-.3 1 .7 0 1.201.2 1.702.6.6.3.801.9.801 1.6Zm7.913 0c0 .3-.1.6-.2.9-.101.3-.301.6-.502.8-.2.2-.5.4-.8.6-.301.1-.702.2-1.103.2-.5 0-.901-.1-1.302-.3-.4-.2-.8-.4-1.101-.7-.2-.3-.401-.6-.601-1-.1-.4-.2-.8-.2-1.3 0-.9.2-1.6.5-2.4.3-.7.701-1.4 1.302-1.9.2-.2.501-.5.802-.7.3-.2.6-.4.9-.5.301-.1.502-.3.702-.4.2-.1.3-.1.4-.2l1.403 2c-.2.1-.501.2-.801.4-.3.1-.601.3-.902.5-.3.2-.5.5-.701.8-.2.3-.3.6-.3 1 .7 0 1.201.2 1.702.6.501.3.802.9.802 1.6ZM354.593 336.5c0-.3.1-.6.2-.9.1-.3.301-.6.501-.8.2-.2.501-.4.801-.6.301-.1.701-.2 1.102-.2.501 0 .901.1 1.302.3.401.2.801.4 1.102.7.3.3.4.6.601 1 .1.4.2.8.2 1.3 0 .9-.2 1.6-.501 2.4-.3.7-.701 1.4-1.302 1.9-.2.2-.501.5-.801.7-.301.2-.601.4-.902.5-.3.1-.5.3-.701.4-.2.1-.3.1-.4.2l-1.402-2c.2-.1.5-.2.801-.4.3-.1.601-.3.901-.5.301-.2.501-.5.701-.8.201-.3.301-.6.301-1-.701 0-1.202-.2-1.703-.6-.501-.3-.801-.9-.801-1.6Zm-7.812 0c0-.3.1-.6.2-.9.1-.3.3-.6.501-.8.2-.2.501-.4.801-.6.3-.1.701-.2 1.102-.2.5 0 .901.1 1.302.3.4.2.801.4 1.101.7.201.3.401.6.601 1 .101.4.201.8.201 1.3 0 .9-.201 1.6-.501 2.4-.301.7-.701 1.4-1.302 1.9-.2.2-.501.5-.801.7-.301.2-.601.4-.902.5-.3.1-.501.3-.701.4-.2.1-.3.1-.4.2l-1.403-2c.301-.1.501-.2.802-.4.3-.1.601-.3.901-.5.3-.2.501-.5.701-.8.2-.3.301-.6.301-1-.702 0-1.202-.2-1.703-.6-.601-.3-.801-.9-.801-1.6Z" fill="#fff"/></svg>