<svg width="158" height="52" fill="none" xmlns="http://www.w3.org/2000/svg"><path d="m39.385 42.804-.123.123c-.859.917-1.84 1.345-2.761 1.345l1.718-2.996c1.105-1.896.061-3.73-1.657-3.73-1.412 0-2.516.55-3.56 2.384l-.92 1.59-.737 1.284-.122.123c-1.35 1.529-2.64 2.752-3.437 2.752-.43 0-.614-.306-.184-.979l3.927-6.849h1.473l.553-.856H32.02L33.74 34h-1.841l-1.719 2.996h-1.657l-.552.856h1.657l-3.682 6.36c-.798 1.345-.246 2.63 1.227 2.63 1.043 0 2.27-.796 3.376-1.896 0 2.323 3.252 2.813 5.216.305h.43c1.104 0 2.823-.672 3.743-1.773 0-.306-.306-.55-.552-.673Zm-3.928.123h-.061c-.614 0-1.105.489-1.105 1.1 0 .245.062.428.184.612v.061c-.859 1.468-2.946 1.223-1.902-.734l1.411-2.385.86-1.467c1.288-2.201 3.068-1.345 1.963.55l-1.35 2.263ZM64.854 42.804l-.123.122c-1.35 1.53-3.007 2.752-4.296 2.752-1.104 0-1.78-.734-.982-2.201l.184-.306c1.166.49 3.437.245 4.787-2.14l.246-.428c.982-1.712.061-2.935-1.473-2.935-1.473 0-2.639.795-3.437 2.14l-1.78 3.057-.122.123c-1.35 1.528-2.64 2.751-3.437 2.751-.43 0-.614-.305-.184-.978l2.639-4.647c.798-1.407.061-2.385-.982-2.385-.798 0-1.657.428-2.578 1.406l2.946-5.075h-1.841l-5.094 8.744-.123.122c-1.35 1.53-2.639 2.752-3.436 2.752-.43 0-.614-.305-.184-.978l3.927-6.849h1.473l.552-.856h-1.534l1.719-2.996h-1.842l-1.718 2.996h-1.657l-.552.856h1.657l-3.683 6.36c-.797 1.345-.245 2.63 1.228 2.63.736 0 1.534-.368 2.332-.98l-.491.796h1.841l2.762-4.831c2.823-3.547 4.05-3.058 3.314-1.712l-2.394 4.158c-.797 1.345-.245 2.63 1.228 2.63 1.104 0 2.332-.857 3.437-1.958.061 1.162 1.043 1.957 2.516 1.957 2.086 0 4.173-1.59 5.646-3.363.061-.367-.245-.611-.491-.734Zm-3.498-2.568c1.043-1.834 2.946-1.529 1.841.367l-.245.428c-.86 1.468-2.087 1.468-2.762 1.223l1.166-2.018ZM131.81 42.804l-.123.123c-.675.795-1.473 1.467-2.209 2.018.613-1.774.429-4.403 1.595-6.788l-1.35-.734c-.736 1.04-2.393 3.425-4.112 5.381l-.123.123c-1.35 1.528-2.639 2.751-3.436 2.751-.43 0-.614-.305-.184-.978l3.927-6.849h-1.841l-3.253 5.687c-1.411 1.284-2.454 1.957-2.823 1.835-.429-.184 0-.856.246-1.284l3.559-6.238h-1.841l-2.884 4.953-.123.123c-.859.917-1.841 1.345-2.762 1.345l1.719-2.996c1.104-1.896.061-3.73-1.657-3.73-1.412 0-2.516.55-3.56 2.384l-.92 1.59-.737 1.284-.122.123c-1.351 1.528-3.008 2.751-4.296 2.751-1.105 0-1.78-.733-.982-2.2l.184-.307c1.166.49 3.436.245 4.787-2.14l.245-.428c.982-1.712.062-2.935-1.473-2.935-1.473 0-2.639.795-3.437 2.14l-1.779 3.058-.123.122c-1.534 1.773-2.823 2.874-4.296 3.485l4.112-7.032h-1.105c0-.734-.798-1.773-1.902-1.773-.982 0-2.394.795-3.13 2.14l-1.78 3.058-.123.122c-1.35 1.529-2.639 2.752-3.436 2.752-.43 0-.614-.306-.185-.979l1.841-3.18c.614-1.1.307-1.773-.245-2.507l-1.043-1.223c-.246-.305-.246-.733.122-1.04l-.981-1.039c-1.044.918-1.105 1.957-.492 2.813l.185.184c-.798 1.161-1.903 2.69-3.13 4.097l-.123.122c-.86.917-1.841 1.345-2.762 1.345l1.719-2.996c1.104-1.896.061-3.73-1.657-3.73-1.412 0-2.517.55-3.56 2.385l-.92 1.59-.737 1.284-.123.122c-1.534 1.773-2.823 2.874-4.296 3.485l4.112-7.032h-1.104c0-.734-.798-1.773-1.903-1.773-.982 0-2.393.795-3.13 2.14l-2.577 4.464c-.798 1.345-.246 2.63 1.227 2.63.49 0 1.105-.245 1.78-.612l-.491.856c-2.455.734-4.05 1.773-4.05 3.119 0 1.773 2.7 2.14 4.05-.123l1.411-2.385c1.473-.427 2.885-1.345 4.419-2.751 0 2.324 3.253 2.813 5.217.306h.43c1.104 0 2.822-.673 3.743-1.774.859-1.04 1.595-1.957 3.068-3.913l.246.305c.245.306.307.673.123 1.04l-1.964 3.363c-.798 1.345-.246 2.63 1.227 2.63.92 0 1.964-.612 2.946-1.468 0 .856.552 1.468 1.596 1.468.49 0 1.104-.245 1.78-.612l-.43.734c-2.455.734-4.05 1.773-4.05 3.118 0 1.774 2.7 2.14 4.05-.122l1.411-2.385c1.473-.489 2.946-1.345 4.48-2.813.062 1.162.982 1.957 2.517 1.957 1.472 0 3.007-.856 4.234-1.957-.061 2.385 3.253 2.874 5.217.367h.429c.553 0 1.35-.183 2.026-.55-.491 1.284-.062 2.14.981 2.14.982 0 2.148-.917 3.008-1.773-.184.978.429 1.773 1.595 1.773 1.535 0 3.253-1.59 4.787-3.363 1.044-1.223 1.964-2.507 2.639-3.363-.736 1.896-.307 5.32-2.086 5.32-.614 0-.86-.673-.86-.673l-1.166.612s.307 1.467 2.026 1.467c.184 0 .306 0 .491-.06h.061c1.902-.245 3.744-1.713 5.094-3.303-.062-.306-.368-.611-.675-.673Zm-26.329-2.568c1.044-1.834 2.946-1.529 1.842.367l-.246.428c-.859 1.468-2.086 1.468-2.762 1.223l1.166-2.018Zm-35.104 9.54c-.368.672-.982.61-.982.06 0-.489.43-1.039 1.841-1.59l-.859 1.53Zm.86-4.098c-.43 0-.614-.305-.185-.978l2.578-4.464c.982-1.712 2.946-1.284 2.025.367l-1.411 2.446c-1.105 1.773-2.271 2.63-3.008 2.63Zm11.292-2.751h-.062c-.613 0-1.104.489-1.104 1.1 0 .245.061.428.184.612v.061c-.86 1.468-2.946 1.223-1.903-.734l1.412-2.385.859-1.467c1.289-2.201 3.069-1.345 1.964.55l-1.35 2.263Zm11.538 6.848c-.369.673-.982.612-.982.062 0-.49.43-1.04 1.84-1.59l-.858 1.528Zm.859-4.097c-.43 0-.614-.305-.184-.978l2.577-4.464c.982-1.712 2.946-1.284 2.025.367l-1.411 2.446c-1.105 1.773-2.27 2.63-3.007 2.63Zm18.104-2.751h-.061c-.614 0-1.105.489-1.105 1.1 0 .245.061.428.184.612v.061c-.859 1.468-2.946 1.223-1.902-.734l1.411-2.385.859-1.467c1.289-2.201 3.069-1.345 1.964.55l-1.35 2.263ZM17.844 40.847H.107v1.223h17.737v-1.223ZM157.156 40.847H139.42v1.223h17.736v-1.223Z" fill="#766458"/><path d="M38.035 0h4.726l-.737 27.456h-8.899l-1.227-11.313-1.228 11.313h-8.96L21.035 0H25.7l.368 22.747h.491L29.566 0h4.664l3.007 22.747h.491L38.035 0ZM57.55 22.747v4.77H44.725V0h12.827v4.708h-8.163v6.605h6.506v4.708h-6.505v6.665h8.162v.061ZM70.684 22.747v4.77h-11.23V0h4.664v22.747h6.566ZM80.626 17.366l4.726-1.1v8.316c0 1.59-1.35 2.874-2.885 2.874H75.41c-1.596 0-2.885-1.345-2.885-2.874V2.874A2.876 2.876 0 0 1 75.41 0h7.058c1.534 0 2.884 1.284 2.884 2.874v5.565l-4.726 1.1V4.647h-3.375v18.04h3.375v-5.32ZM98.117 0c1.534 0 2.884 1.284 2.884 2.874v21.647c0 1.59-1.35 2.874-2.884 2.874h-7.058c-1.595 0-2.884-1.345-2.884-2.874V2.874A2.876 2.876 0 0 1 91.059 0h7.058Zm-1.841 4.708H92.9v18.04h3.376V4.707ZM116.344 0h4.665v27.456h-4.665V13.942l-1.902 6.971h-4.603l-1.841-6.971v13.514h-4.664V0h4.664l4.173 13.27L116.344 0ZM136.167 22.747v4.77h-12.826V0h12.826v4.708h-8.162v6.605h6.505v4.708h-6.505v6.665h8.162v.061Z" fill="#81B3D3"/></svg>